<?xml version="1.0" encoding="utf-8"?>
<!-- Generator: Adobe Illustrator 23.1.1, SVG Export Plug-In . SVG Version: 6.00 Build 0)  -->
<svg version="1.1" id="Layer_1" xmlns="http://www.w3.org/2000/svg" xmlns:xlink="http://www.w3.org/1999/xlink" x="0px" y="0px"
	 viewBox="0 0 20 20" style="enable-background:new 0 0 20 20;" xml:space="preserve">
<style type="text/css">
	.st0{fill:#9A1917;}
</style>
<g>
	<path class="st0" d="M20,10c0,2.6-1,5-2.9,7.1C15,19,12.6,20,10,20s-5-1-7.1-2.9C1,15,0,12.6,0,10s1-5,2.9-7.1C5,1,7.4,0,10,0
		s5,1,7.1,2.9C19,5,20,7.4,20,10z M10,18c2.1,0,4-0.8,5.7-2.3C17.2,14,18,12.1,18,10s-0.8-4-2.3-5.7C14,2.8,12.1,2,10,2
		S6,2.8,4.3,4.3C2.8,6,2,7.9,2,10s0.8,4,2.3,5.7C6,17.2,7.9,18,10,18z M11.4,10l2.8,2.8l-1.4,1.4L10,11.4l-2.8,2.8l-1.4-1.4L8.6,10
		L5.8,7.2l1.4-1.4L10,8.6l2.8-2.8l1.4,1.4L11.4,10z"/>
</g>
</svg>
