<?xml version="1.0" encoding="utf-8"?>
<!-- Generator: Adobe Illustrator 23.1.1, SVG Export Plug-In . SVG Version: 6.00 Build 0)  -->
<svg version="1.1" id="Layer_1" xmlns="http://www.w3.org/2000/svg" xmlns:xlink="http://www.w3.org/1999/xlink" x="0px" y="0px"
	 viewBox="0 0 24 24" style="enable-background:new 0 0 24 24;" xml:space="preserve">
<style type="text/css">
	.st0{fill:#FFFFFF;}
</style>
<path class="st0" d="M13,21l2-1l2,1v-7h-4 M17,9V7l-2,1l-2-1v2l-2,1l2,1v2l2-1l2,1v-2l2-1 M20,3H4C2.9,3,2,3.9,2,5v10
	c0,1.1,0.9,2,2,2h7v-2H4V5h16v10h-1v2h1c1.1,0,2-0.9,2-2V5C22,3.9,21.1,3,20,3 M11,8H5V6h6 M9,11H5V9h4 M11,14H5v-2h6V14z"/>
</svg>
