<?xml version="1.0" encoding="utf-8"?>
<!-- Generator: Adobe Illustrator 23.1.1, SVG Export Plug-In . SVG Version: 6.00 Build 0)  -->
<svg version="1.1" id="Layer_1" xmlns="http://www.w3.org/2000/svg" xmlns:xlink="http://www.w3.org/1999/xlink" x="0px" y="0px"
	 viewBox="0 0 24 24" style="enable-background:new 0 0 24 24;" xml:space="preserve">
<style type="text/css">
	.st0{fill:#666666;}
</style>
<path class="st0" d="M16,15H9v-2h7V15 M19,11H9V9h10V11 M19,7H9V5h10V7 M3,5v16h16v2H3c-1.1,0-2-0.9-2-2V5H3 M21,1c1.1,0,2,0.9,2,2
	v14c0,1.1-0.9,2-2,2H7c-1.1,0-2-0.9-2-2V3c0-1.1,0.9-2,2-2H21 M7,3v14h14V3H7z"/>
</svg>
