<?xml version="1.0" encoding="utf-8"?>
<!-- Generator: Adobe Illustrator 24.1.0, SVG Export Plug-In . SVG Version: 6.00 Build 0)  -->
<svg version="1.1" id="Layer_1" xmlns="http://www.w3.org/2000/svg" xmlns:xlink="http://www.w3.org/1999/xlink" x="0px" y="0px"
	 viewBox="0 0 24 24" style="enable-background:new 0 0 24 24;" xml:space="preserve">
<style type="text/css">
	.st0{fill:#666666;}
</style>
<path class="st0" d="M8,12h8v2H8V12 M10,20H6V4h7v5h5v3.1l2-2V8l-6-6H6C4.89543,2,4,2.89543,4,4v16c0,1.10457,0.89543,2,2,2h4V20
	 M8,18h4.1l0.9-0.9V16H8V18 M20.2,13c0.1,0,0.3,0.1,0.4,0.2l1.3,1.3c0.2,0.2,0.2,0.6,0,0.8l-1,1l-2.1-2.1l1-1
	C19.9,13.1,20,13,20.2,13 M20.2,16.9L14.1,23H12v-2.1l6.1-6.1L20.2,16.9z"/>
</svg>
