<?xml version="1.0" encoding="utf-8"?>
<!-- Generator: Adobe Illustrator 17.1.0, SVG Export Plug-In . SVG Version: 6.00 Build 0)  -->
<!DOCTYPE svg PUBLIC "-//W3C//DTD SVG 1.1//EN" "http://www.w3.org/Graphics/SVG/1.1/DTD/svg11.dtd">
<svg version="1.1" id="Layer_1" xmlns="http://www.w3.org/2000/svg" xmlns:xlink="http://www.w3.org/1999/xlink" x="0px" y="0px"
	 viewBox="0 0 46 46" enable-background="new 0 0 46 46" xml:space="preserve">
<g>
	<g>
		<g>
			<g>
				<path fill="#D14840" d="M23,1.341c-12.15,0-22,9.846-22,21.999c0,12.152,9.85,22.001,22,22.001s22-9.849,22-22.001
					C45,11.188,35.15,1.341,23,1.341z"/>
			</g>
		</g>
		<g>
			<path fill="#FFFFFF" d="M13.581,31.671l7.397-8.836l-7.09-8.355h2.886c0.215,0,0.371,0.027,0.469,0.082s0.19,0.133,0.278,0.234
				l5.61,6.891c0.068-0.172,0.171-0.355,0.308-0.551l5.303-6.293c0.088-0.109,0.183-0.197,0.286-0.264
				c0.102-0.066,0.231-0.1,0.388-0.1h2.769l-7.119,8.25l7.354,8.941h-2.871c-0.225,0-0.398-0.047-0.52-0.141
				c-0.123-0.094-0.223-0.195-0.301-0.305l-5.771-7.207c-0.068,0.172-0.156,0.332-0.264,0.48l-5.61,6.727
				c-0.088,0.109-0.19,0.211-0.308,0.305s-0.278,0.141-0.483,0.141H13.581z"/>
		</g>
	</g>
</g>
</svg>
