<?xml version="1.0" encoding="utf-8"?>
<!-- Generator: Adobe Illustrator 17.1.0, SVG Export Plug-In . SVG Version: 6.00 Build 0)  -->
<!DOCTYPE svg PUBLIC "-//W3C//DTD SVG 1.1//EN" "http://www.w3.org/Graphics/SVG/1.1/DTD/svg11.dtd">
<svg version="1.1" id="Layer_1" xmlns="http://www.w3.org/2000/svg" xmlns:xlink="http://www.w3.org/1999/xlink" x="0px" y="0px"
	 viewBox="0 0 46 46" enable-background="new 0 0 46 46" xml:space="preserve">
<g>
	<g>
		<g>
			<g>
				<path fill="#7AA7C6" d="M23,1.341c-12.15,0-22,9.846-22,21.999c0,12.152,9.85,22.001,22,22.001s22-9.849,22-22.001
					C45,11.188,35.15,1.341,23,1.341z"/>
			</g>
		</g>
		<path fill="#FFFFFF" d="M27.81,34.846c0,0.373-0.107,0.561-0.32,0.561c-0.547,0-1.247-0.04-2.1-0.12
			c-0.957-0.08-1.761-0.12-2.41-0.12c-0.663,0-1.46,0.04-2.39,0.12c-0.84,0.08-1.533,0.12-2.08,0.12c-0.213,0-0.32-0.188-0.32-0.561
			c0-0.333,0.106-0.513,0.32-0.54c1.133-0.146,1.863-0.419,2.19-0.818s0.49-1.251,0.49-2.557v-7.389c0-1.065-0.137-1.764-0.41-2.097
			s-0.87-0.553-1.79-0.659c-0.213,0-0.32-0.177-0.32-0.53c0-0.326,0.106-0.49,0.319-0.49c1.396-0.359,2.539-0.743,3.429-1.149
			c0.891-0.407,1.449-0.743,1.675-1.01c0.133-0.16,0.279-0.24,0.438-0.24c0.372,0,0.558,0.106,0.558,0.319
			c-0.213,2.987-0.32,5.308-0.32,6.961v6.279c0,1.307,0.163,2.16,0.49,2.561c0.327,0.399,1.07,0.673,2.23,0.819
			C27.703,34.333,27.81,34.513,27.81,34.846z M25.01,12.666c0,0.56-0.203,1.047-0.61,1.46s-0.897,0.62-1.47,0.62
			s-1.063-0.207-1.47-0.62s-0.61-0.9-0.61-1.46c0-0.587,0.2-1.08,0.6-1.48c0.4-0.399,0.894-0.6,1.48-0.6c0.573,0,1.063,0.2,1.47,0.6
			C24.807,11.586,25.01,12.079,25.01,12.666z"/>
	</g>
</g>
</svg>
