<svg xmlns="http://www.w3.org/2000/svg" width="324.18mm" height="159.91mm" viewBox="0 0 918.93 453.3"><path d="M379.21,246.06c14.34,0,22.65-5.94,22.65-24.43V165.45h23.62v54.14c0,31.28-14.33,43.91-46.84,43.91s-46.84-12.63-46.84-43.91V165.44h24.77v56.19c0,18.49,8.31,24.43,22.64,24.43" fill="#330072"/><path d="M493.78,165.45v38.82c0,1.14.48,1.63,1.62,1.63h6.12a3.32,3.32,0,0,0,3-1.3l31.14-39.16h29.06l-35.85,44c-.65.82-.81,1-.81,1.8V213a2.07,2.07,0,0,0,.81,1.79l41.55,47.34H537.1l-32.57-40.33a2.7,2.7,0,0,0-2.61-1.15H495.4c-1.14,0-1.62.49-1.62,1.64V262.1l-24.77,0V165.45Z" fill="#330072"/><path d="M680.81,262.11l-7.69-20.48c-.57-1.47-1.3-1.65-2.77-1.63-3.46,0-13,0-22.33,0-8.71,0-17,.06-20.36,0-1.47,0-2.2.16-2.77,1.63l-7.77,20.48H591.74l40.16-96.64h35l40.15,96.64Zm-16.22-39.86a1,1,0,0,0,.92-1.34l-14-36.3c-.4-1.07-.81-1.31-1.79-1.31h-1.47c-1,0-1.38.24-1.79,1.31L632.57,220.9a1,1,0,0,0,.92,1.34Z" fill="#330072"/><path d="M817.34,168.67c2,.61,2.52.81,2.52.81v6l0,8.57v3s-3.28-.69-3.85-.77c-5.95-1.23-18.74-4.08-33.32-4.08-11.41,0-21.18,1.63-21.18,9.7,0,7.82,6.76,8.71,23.54,11.16,24.36,3.5,40.17,7.58,40.17,30.38,0,24.85-24.85,30.15-48.31,30.15-16.54,0-35-3.26-38.54-4.56-1.95-.66-2.1-.7-2.1-.7l0-7-.05-9.21,0-2.39s2.67.59,3.24.76c12.79,3.1,25.83,5.3,39.84,5.3,7.09,0,20.61-.49,20.61-10.27,0-7.09-3.09-9.12-22.89-11.89-23.63-3.34-40.57-8.56-40.57-30,0-24.36,22.89-29.16,46.76-29.16,15.31,0,30.79,3.17,34.05,4.31" fill="#330072"/><path d="M107.12,204.72a5.67,5.67,0,0,0,.65-.8,5.52,5.52,0,0,0,.48-.9,5.45,5.45,0,0,0,.3-1,5.87,5.87,0,0,0,.1-1,5.05,5.05,0,0,0-.4-2,5.52,5.52,0,0,0-.48-.9,4.56,4.56,0,0,0-.65-.79,5,5,0,0,0-.8-.65,4.32,4.32,0,0,0-.9-.48,4.12,4.12,0,0,0-1-.3,5,5,0,0,0-2,0,4.42,4.42,0,0,0-1,.3,4.58,4.58,0,0,0-.9.48,5,5,0,0,0-.8.65,4.51,4.51,0,0,0-.64.79,4.32,4.32,0,0,0-.48.9,4.51,4.51,0,0,0-.3,1,5.15,5.15,0,0,0-.11,1,5.05,5.05,0,0,0,.11,1,4.19,4.19,0,0,0,.3,1,4.32,4.32,0,0,0,.48.9,5,5,0,0,0,.64.8,5,5,0,0,0,.8.65,5.18,5.18,0,0,0,.9.48,5.15,5.15,0,0,0,2,.4,5.27,5.27,0,0,0,3.69-1.53" fill="#330072"/><path d="M101.35,164a5.22,5.22,0,1,0-1.89-7.13,5.22,5.22,0,0,0,1.89,7.13" fill="#330072"/><path d="M113.25,153.73a5.22,5.22,0,1,0-4-1.89,5.25,5.25,0,0,0,4,1.89" fill="#330072"/><path d="M125.76,146.67a5.22,5.22,0,1,0-4.93-3.51,5.19,5.19,0,0,0,4.93,3.51" fill="#330072"/><path d="M140,144.24a5.22,5.22,0,1,0-5.22-5.22,5.22,5.22,0,0,0,5.22,5.22" fill="#330072"/><path d="M152.25,146.49a5.11,5.11,0,0,0,1.83.34,5.24,5.24,0,1,0-1.83-.34" fill="#330072"/><path d="M98,178.12a5.74,5.74,0,0,0,1,.1,5.24,5.24,0,1,0-1-.1" fill="#330072"/><path d="M99.78,192.51a5.21,5.21,0,0,0,4.27-6h0a5.22,5.22,0,1,0-5.15,6.1,5.33,5.33,0,0,0,.88-.08" fill="#330072"/><path d="M164.77,150.78a5.18,5.18,0,0,0,.9.48,5.69,5.69,0,0,0,2,.4,5.22,5.22,0,0,0,5.22-5.22,5.87,5.87,0,0,0-.1-1,5.31,5.31,0,0,0-.78-1.88,5.46,5.46,0,0,0-.65-.79,5.27,5.27,0,0,0-4.71-1.43,5.82,5.82,0,0,0-1,.3,5.18,5.18,0,0,0-.9.48,5,5,0,0,0-.79.65,5.46,5.46,0,0,0-.65.79,5.31,5.31,0,0,0-.78,1.88,5,5,0,0,0-.1,1,5.27,5.27,0,0,0,1.53,3.69,5,5,0,0,0,.79.65" fill="#330072"/><path d="M278.54,199a5.18,5.18,0,0,0-.48-.9,4.56,4.56,0,0,0-.65-.79,5,5,0,0,0-.8-.65,4,4,0,0,0-.89-.48,4.85,4.85,0,0,0-1-.31,5.38,5.38,0,0,0-2,0,5.06,5.06,0,0,0-1,.31,3.9,3.9,0,0,0-.9.48,5,5,0,0,0-.79.65,4.15,4.15,0,0,0-.65.79,5.18,5.18,0,0,0-.48.9,5.57,5.57,0,0,0-.4,2,4.43,4.43,0,0,0,.11,1,4.16,4.16,0,0,0,.29,1,4.85,4.85,0,0,0,.48.9,5,5,0,0,0,.65.8,5.25,5.25,0,0,0,3.69,1.53,5.87,5.87,0,0,0,1-.1,5.55,5.55,0,0,0,1-.3,5.15,5.15,0,0,0,2.34-1.93,4.85,4.85,0,0,0,.48-.9,5.45,5.45,0,0,0,.3-1,5,5,0,0,0,.1-1,5.14,5.14,0,0,0-.1-1,6,6,0,0,0-.3-1" fill="#330072"/><path d="M249.67,146.37a5.09,5.09,0,0,0,1.71.3,5.25,5.25,0,1,0-1.71-.3" fill="#330072"/><path d="M260.57,152.53a5.22,5.22,0,1,0-.69-7.35,5.21,5.21,0,0,0,.69,7.35" fill="#330072"/><path d="M268.65,162.12a5.22,5.22,0,0,0,4.52,2.6,5.09,5.09,0,0,0,2.62-.71,5.22,5.22,0,1,0-7.14-1.89" fill="#330072"/><path d="M237.2,144.24a5.22,5.22,0,0,0,0-10.44h0a5.22,5.22,0,1,0,0,10.44" fill="#330072"/><path d="M277.19,167.87a5.22,5.22,0,0,0,1,10.35,4.85,4.85,0,0,0,1-.1,5.22,5.22,0,1,0-2-10.25" fill="#330072"/><path d="M279.11,182.22a5.22,5.22,0,0,0-1.75,10.29,5.35,5.35,0,0,0,.89.08,5.22,5.22,0,0,0,.86-10.37" fill="#330072"/><path d="M223.06,146.83a5.12,5.12,0,0,0,1.84-.34,5.2,5.2,0,1,0-1.84.34" fill="#330072"/><path d="M204.66,148.43a4.89,4.89,0,0,0,.47.91,5.58,5.58,0,0,0,.65.79,5,5,0,0,0,.8.65,4.85,4.85,0,0,0,.9.48,5.71,5.71,0,0,0,1,.3,5.21,5.21,0,0,0,1,.1,5.27,5.27,0,0,0,3.69-1.53,5.06,5.06,0,0,0,1.13-1.7,5.45,5.45,0,0,0,.3-1,5.87,5.87,0,0,0,.1-1,5.23,5.23,0,0,0-6.25-5.12,6,6,0,0,0-1,.3,4.85,4.85,0,0,0-.9.48,5,5,0,0,0-.8.65,5.24,5.24,0,0,0-1.52,3.69,5,5,0,0,0,.1,1,4.19,4.19,0,0,0,.3,1" fill="#330072"/><path d="M265.67,204.24a8.89,8.89,0,0,1,.16-6.9l1.68-3.93a32.73,32.73,0,0,0-42-43.47l-.39.16-.07,0a90.13,90.13,0,0,1-25.12,6.92,11.36,11.36,0,0,0-5.8-8.71A14.23,14.23,0,0,0,199.38,126h0l-3.23-3.8a21.88,21.88,0,0,1-5.08-11.72,21.88,21.88,0,0,1,11.72,5.08V100.33a21.87,21.87,0,0,1-11.72,5.07,21.88,21.88,0,0,1,5.08-11.72H181a21.87,21.87,0,0,1,5.07,11.72,21.87,21.87,0,0,1-11.72-5.07v15.19a21.88,21.88,0,0,1,11.72-5.08A21.87,21.87,0,0,1,181,122.16l-3.24,3.8h0a14.22,14.22,0,0,0,5.29,22.39,11.4,11.4,0,0,0-5.81,8.71,90.39,90.39,0,0,1-25.13-6.92l-.44-.2a32.74,32.74,0,0,0-42.05,43.46l1.7,3.95a8.91,8.91,0,0,1,.14,6.89,9.15,9.15,0,0,1-5,5l-3.81,1.65,14.39,36.07,6.62,16.8a166.09,166.09,0,0,1,129.73,0l6.61-16.8,14.4-36.07-3.81-1.65a9.2,9.2,0,0,1-5-5m-77.1-96.32Zm-23,123c-10.78,0-18.32-7.87-18.05-16.29a3.92,3.92,0,0,1,7.84.22,3.88,3.88,0,0,1-1,2.59,7.3,7.3,0,1,0-8.32-8.34H146a24.2,24.2,0,0,0-.54-8.16c-1.55-6.83-5.25-11.81-8.26-11.12h0c-3,.73-4.16,6.78-2.64,13.58a24,24,0,0,0,3,7.59l-.07,0a7.31,7.31,0,1,0-3.93,11.11,3.92,3.92,0,1,1,5-5.43c3.82,7.49.38,17.79-9.33,22.41a19.88,19.88,0,0,1-5.41,1.66L113.54,215a17.35,17.35,0,0,0,5.63-21l-1.7-3.95a24.2,24.2,0,0,1,30.94-32.19,98.26,98.26,0,0,0,28.77,7.82V196a19.48,19.48,0,0,1,7.5,12,27.49,27.49,0,0,1-18.91-11.82v30.38a27.51,27.51,0,0,1,19-11.83,19.47,19.47,0,0,1-19.17,16.15m87.75,9.86a20,20,0,0,1-5.41-1.66c-9.71-4.62-13.14-14.92-9.33-22.41a4,4,0,0,1,5.16-1.7,3.9,3.9,0,0,1,1.85,5.21,3.86,3.86,0,0,1-2,1.92A7.3,7.3,0,1,0,239.66,211l-.07,0a24,24,0,0,0,3-7.59c1.53-6.8.34-12.85-2.63-13.58h0c-3-.69-6.71,4.29-8.26,11.12a24.2,24.2,0,0,0-.54,8.16h-.07a7.31,7.31,0,1,0-8.32,8.34,3.92,3.92,0,0,1,2.93-6.51,3.94,3.94,0,0,1,3.93,3.7c.26,8.42-7.27,16.29-18,16.29a19.45,19.45,0,0,1-19.17-16.15,27.51,27.51,0,0,1,19,11.83V196.2A27.49,27.49,0,0,1,192.47,208,19.51,19.51,0,0,1,200,196V165.65a98.24,98.24,0,0,0,28.78-7.82A24.2,24.2,0,0,1,259.67,190L258,194a17.32,17.32,0,0,0,5.63,21Z" fill="#330072"/><path d="M825.36,335.12q0-8.24-3.86-11.81t-11.62-3.59c-5.65,0-9.91,1.25-12.81,3.74q-4.65,4.2-4.65,16.63,0,10.83,4,15.47t15.32,4.57a55.62,55.62,0,0,0,10.37-1.07v-4.49a48.8,48.8,0,0,1-10.44.91c-5.34,0-9-1-11-3.05s-3-5.87-3-11.51h27.44a51,51,0,0,0,.3-5.8M801,327c1.92-1.78,4.9-2.67,8.92-2.67,3.5,0,6.11.79,7.81,2.37s2.56,4.14,2.56,7.7c0,.82,0,1.63-.07,2.44H797.84c.2-4.78,1.23-8,3.12-9.84m-27-7.32q-11.22,0-14.8,4.58-3,3.81-3,11.43v9.39q0,6.63,3.2,10.67,3.75,4.33,13.81,4.34a56.78,56.78,0,0,0,12.12-1.22v-4.65a47,47,0,0,1-11.51,1.22q-6.48,0-9.39-2.25c-1.92-1.49-2.89-4.2-2.89-8.11V334.75c0-3.87,1-6.56,2.93-8.09s5.08-2.29,9.35-2.29a51.22,51.22,0,0,1,11.51,1.22v-4.65a71.11,71.11,0,0,0-11.36-1.22m-31,3.21q-3.42-3.21-12.5-3.21a27.26,27.26,0,0,0-11.81,2.37l-.77-1.68h-4v39h5.34V326a36.67,36.67,0,0,1,10.92-1.63c4.47,0,7.39.77,8.77,2.29S741,331,741,335.2v24.25h5.34V334.83q0-8.7-3.44-11.9m-38.27,12.19q0-8.24-3.85-11.81t-11.62-3.59c-5.65,0-9.91,1.25-12.82,3.74q-4.64,4.2-4.64,16.63,0,10.83,4,15.47T691,360.13a56.47,56.47,0,0,0,10.45-1.07v-4.49a49,49,0,0,1-10.45.91c-5.34,0-9-1-11-3.05s-3-5.87-3-11.51h27.3a51,51,0,0,0,.3-5.8M680.26,327c1.93-1.78,4.9-2.67,8.93-2.67,3.5,0,6.11.79,7.81,2.37s2.55,4.14,2.55,7.7c0,.82,0,1.63-.07,2.44H677.11c.2-4.78,1.25-8,3.12-9.84m-29,32.41a20.61,20.61,0,0,0,5.78-1.68l.76,1.68h4V305.24h-5.34v16.09a47.78,47.78,0,0,0-11.21-1.61q-13.2.39-15.64,7.55a21.88,21.88,0,0,0-1.28,7.93v9.46a22.64,22.64,0,0,0,1.21,8,10,10,0,0,0,2.67,3.82c3,2.43,7.53,3.65,13.41,3.65a32.77,32.77,0,0,0,5.66-.68m-15.14-6.33c-1.58-1.57-2.36-4.4-2.36-8.46v-9.39c0-4.31.83-7.18,2.51-8.61s4.72-2.29,9-2.29A35.58,35.58,0,0,1,656.48,326v27.9a36.76,36.76,0,0,1-11.21,1.6c-4.53,0-7.58-.78-9.15-2.36m-18-32.71h-5.34v39h5.33Zm0-15a4.56,4.56,0,0,0-5.22,0,5.19,5.19,0,0,0-.69,3.24,4.13,4.13,0,0,0,.73,2.83,4.65,4.65,0,0,0,5.11,0,4.23,4.23,0,0,0,.72-2.83,4.85,4.85,0,0,0-.65-3.2m-20.85,4.8a61.52,61.52,0,0,1,9.38-1.29v-4.35A53.35,53.35,0,0,0,595.82,306a8.47,8.47,0,0,0-6.62,5.79,16.13,16.13,0,0,0-.54,4.58v5.48h-6.33v4.27h6.33v33.4H594v-33.4h11.21v-4.27H594V316c0-3.36,1.08-5.29,3.27-5.8m-26,12.74q-3.43-3.21-12.51-3.21a27.3,27.3,0,0,0-11.82,2.37l-.76-1.68h-4v39h5.33V326a36.31,36.31,0,0,1,10.91-1.61c4.47,0,7.4.77,8.76,2.29s2.14,4.32,2.14,8.54v24.25h5.34V334.83q0-8.7-3.43-11.9m-43,.91q-3.9-4.11-13.87-4.12t-14,4.12c-2.53,2.8-3.81,6.58-3.81,11.36v9.46q0,7.62,4.16,11.55t13.62,3.92q9.75,0,13.64-4t4.19-11.4V335.2q0-7.23-3.9-11.36m-1.44,20.82c0,4-1.06,6.76-3,8.38s-5.1,2.44-9.41,2.44S507,354.67,505,353s-3-4.42-3.08-8.38v-9.54c0-3.91,1-6.67,2.93-8.3s5.13-2.45,9.51-2.45,7.52.8,9.45,2.41,2.93,4.38,3,8.34v9.54Zm-49-24.94c-7.46,0-12.4,1.53-14.78,4.58q-3,3.81-3,11.43v9.39q0,6.63,3.2,10.67,3.74,4.33,13.8,4.34a56.65,56.65,0,0,0,12.12-1.22v-4.65a46.88,46.88,0,0,1-11.51,1.22q-6.48,0-9.37-2.25c-1.94-1.49-2.91-4.2-2.91-8.11V334.75c0-3.87,1-6.56,2.94-8.09s5.07-2.29,9.34-2.29a51.1,51.1,0,0,1,11.51,1.22v-4.65a70.86,70.86,0,0,0-11.36-1.22m-48.64-9.53a61.74,61.74,0,0,1,9.37-1.29v-4.35a53.34,53.34,0,0,0-10.82,1.38,8.55,8.55,0,0,0-6.64,5.79,16.49,16.49,0,0,0-.53,4.58v5.48h-6.32v4.27h6.32v33.4h5.33v-33.4H437v-4.27h-11.2V316q0-5,3.29-5.8m-25.32,13.65q-3.87-4.11-13.87-4.12t-14,4.12q-3.81,4.15-3.77,11.35v9.46q0,7.62,4.15,11.55c2.78,2.61,7.31,3.92,13.62,3.92q9.75,0,13.64-4t4.12-11.37V335.2q0-7.23-3.89-11.36m-1.44,20.82c-.05,4-1.06,6.76-3,8.38s-5.09,2.44-9.41,2.44-7.34-.81-9.35-2.44-3-4.42-3.08-8.38v-9.54c0-3.91,1-6.67,2.93-8.3s5.13-2.45,9.5-2.45,7.51.8,9.45,2.41,2.93,4.38,3,8.34v9.54Zm-69.08,14.79a20.48,20.48,0,0,0,5.79-1.68l.77,1.68h4V305.24h-5.34v16.09a47.63,47.63,0,0,0-11.21-1.61q-13.2.39-15.62,7.55a21.86,21.86,0,0,0-1.3,7.93v9.46a22.88,22.88,0,0,0,1.22,8,10,10,0,0,0,2.66,3.82q4.59,3.64,13.43,3.65a32.31,32.31,0,0,0,5.64-.68m-15.21-6.33c-1.58-1.57-2.37-4.4-2.37-8.46v-9.39q0-6.47,2.51-8.61c1.73-1.52,4.74-2.29,9-2.29A35.48,35.48,0,0,1,338.45,326v27.9a36.68,36.68,0,0,1-11.21,1.6c-4.52,0-7.57-.78-9.14-2.36m-18.3-47.88h-5.34v54.21h5.34Zm-33.93,54.21h5.34v-31.2A53.48,53.48,0,0,1,286.76,325v-5.26q-6,.39-15.71,4.35l-1.3-3.66h-3.88Zm-14-35.61Q248,319.75,238,319.74t-14,4.12c-2.53,2.8-3.81,6.58-3.81,11.36v9.46q0,7.62,4.16,11.55T238,360.15q9.76,0,13.64-4t4.13-11.37V335.2q0-7.23-3.9-11.36m-1.44,20.82c0,4-1.06,6.76-3,8.38s-5.09,2.44-9.41,2.44-7.33-.81-9.35-2.44-3-4.42-3.08-8.38v-9.54c0-3.91,1-6.67,2.93-8.3s5.12-2.45,9.5-2.45,7.52.8,9.45,2.41,2.93,4.38,3,8.34v9.54Zm-41.94-24.25-9,33.55h-.15l-10.53-32.33H184.1L173.46,354h-.08l-9-33.55h-5.64l11.13,39h6.71l9.76-30.57h.15l9.83,30.57H203l11.13-39Zm-81.89,16.7H107.43l9.53-26.3h.14Zm-12.88-31.87-20,54.21h5.64l6.33-17.54h22.57l6.4,17.54h5.65l-19.9-54.21Z" fill="#2ad2c9"/></svg>