<?xml version="1.0" encoding="utf-8"?>
<!-- Generator: Adobe Illustrator 23.1.1, SVG Export Plug-In . SVG Version: 6.00 Build 0)  -->
<svg version="1.1" id="Layer_1" xmlns="http://www.w3.org/2000/svg" xmlns:xlink="http://www.w3.org/1999/xlink" x="0px" y="0px"
	 viewBox="0 0 24 24" style="enable-background:new 0 0 24 24;" xml:space="preserve">
<style type="text/css">
	.st0{fill:#FFFFFF;}
</style>
<path class="st0" d="M21,16V4H3v12H21 M21,2c1.10457,0,2,0.89543,2,2v12c0,1.10457-0.89543,2-2,2h-7v2h2v2H8v-2h2v-2H3
	c-1.11,0-2-0.9-2-2V4c0-1.11,0.89-2,2-2H21 M5,6h9v5H5V6 M15,6h4v2h-4V6 M19,9v5h-4V9H19 M5,12h4v2H5V12 M10,12h4v2h-4V12z"/>
</svg>
