<?xml version="1.0" encoding="utf-8"?>
<!-- Generator: Adobe Illustrator 17.1.0, SVG Export Plug-In . SVG Version: 6.00 Build 0)  -->
<!DOCTYPE svg PUBLIC "-//W3C//DTD SVG 1.1//EN" "http://www.w3.org/Graphics/SVG/1.1/DTD/svg11.dtd">
<svg version="1.1" id="Layer_1" xmlns="http://www.w3.org/2000/svg" xmlns:xlink="http://www.w3.org/1999/xlink" x="0px" y="0px"
	 viewBox="0 0 46 46" enable-background="new 0 0 46 46" xml:space="preserve">
<g>
	<g>
		<g>
			<path fill="#A5BA7B" d="M23,1C10.85,1,1,10.846,1,22.999C1,35.151,10.85,45,23,45s22-9.849,22-22.001C45,10.846,35.15,1,23,1z"/>
		</g>
		<g>
			<path fill="#FFFFFF" d="M19.797,34.534l-6.16-8.187c-0.502-0.648-0.395-1.594,0.24-2.107c0.635-0.513,1.555-0.402,2.057,0.246
				l3.767,5.08l12.332-17.106c0.475-0.668,1.393-0.82,2.045-0.331c0.652,0.488,0.795,1.427,0.32,2.098L19.797,34.534L19.797,34.534z
				"/>
		</g>
	</g>
</g>
</svg>
