<?xml version="1.0" encoding="utf-8"?>
<!-- Generator: Adobe Illustrator 17.1.0, SVG Export Plug-In . SVG Version: 6.00 Build 0)  -->
<!DOCTYPE svg PUBLIC "-//W3C//DTD SVG 1.1//EN" "http://www.w3.org/Graphics/SVG/1.1/DTD/svg11.dtd">
<svg version="1.1" id="Layer_1" xmlns="http://www.w3.org/2000/svg" xmlns:xlink="http://www.w3.org/1999/xlink" x="0px" y="0px"
	 viewBox="0 0 46 46" enable-background="new 0 0 46 46" xml:space="preserve">
<g>
	<g>
		<path fill="#FFCC4C" d="M44.211,38.208L26.421,5.616c-1.973-3.628-5.183-3.558-7.134,0.081L1.772,38.157
			c-1.951,3.639-0.077,6.403,4.165,6.403h34.15C44.328,44.561,46.184,41.836,44.211,38.208z"/>
		<g>
			<path fill="#FFFFFF" d="M21.007,36.513c0-0.307,0.047-0.597,0.14-0.872c0.094-0.273,0.222-0.509,0.386-0.705
				c0.163-0.197,0.356-0.355,0.578-0.476c0.222-0.12,0.461-0.18,0.718-0.18c0.299,0,0.583,0.06,0.849,0.18
				c0.267,0.12,0.497,0.279,0.688,0.476c0.192,0.197,0.344,0.432,0.457,0.705c0.112,0.274,0.169,0.564,0.169,0.872
				c0,0.317-0.057,0.61-0.169,0.879c-0.113,0.269-0.265,0.502-0.457,0.698c-0.192,0.197-0.424,0.351-0.695,0.461
				c-0.271,0.111-0.553,0.166-0.843,0.166c-0.258,0-0.497-0.055-0.718-0.166c-0.222-0.11-0.415-0.264-0.578-0.461
				c-0.164-0.197-0.292-0.429-0.386-0.698C21.054,37.123,21.007,36.83,21.007,36.513z M21.149,25.472v-9.49h3.432v9.49
				c0,0.875-0.046,1.734-0.136,2.576c-0.091,0.842-0.208,1.738-0.352,2.689h-2.456c-0.144-0.941-0.261-1.835-0.352-2.682
				C21.194,27.208,21.149,26.347,21.149,25.472z"/>
		</g>
	</g>
</g>
</svg>
